<?xml version="1.0" encoding="UTF-8"?>
<svg id="Layer_1" xmlns="http://www.w3.org/2000/svg" version="1.1" viewBox="0 0 1080 1080">
  <!-- Generator: Adobe Illustrator 30.3.0, SVG Export Plug-In . SVG Version: 2.1.3 Build 182)  -->
  <defs>
    <style>
      .st0 {
        fill: #0e6cb6;
      }

      .st1 {
        fill: #fff;
      }

      .st2 {
        fill: #0c163e;
      }
    </style>
  </defs>
  <rect class="st1" width="1080" height="1080"/>
  <g>
    <path class="st2" d="M1033.3,88.9c-80.2,11.2-134,32.5-181.8,159.4-40.6,105.6-198,519.9-290.4,766.7h472.2V88.9h0Z"/>
    <path class="st2" d="M48.3,86.9v929.2h435.7c-58.9-170.6-210.2-616.4-274.2-789.1C170.1,122.4,127.5,98.1,47.3,87.9h0l1-1Z"/>
    <path class="st0" d="M324.5,205.7c40.6,118.8,144.2,419.4,206.2,589,80.2-204.1,161.5-418.4,206.2-546.3,33.5-96.5-95.5-184.8-95.5-184.8h-232.6s-105.6,82.3-83.3,142.2c0,0-1,0-1,0Z"/>
  </g>
</svg>
