<?xml version="1.0" encoding="UTF-8"?>
<svg id="Layer_1" xmlns="http://www.w3.org/2000/svg" version="1.1" viewBox="0 0 606.2 131.5">
  <!-- Generator: Adobe Illustrator 30.3.0, SVG Export Plug-In . SVG Version: 2.1.3 Build 182)  -->
  <defs>
    <style>
      .st0 {
        fill: #006bb7;
      }

      .st1 {
        fill: #fff;
      }
    </style>
  </defs>
  <g>
    <path class="st1" d="M108.2,20.2c-7.9,1.1-13.2,3.2-17.9,15.7-4,10.4-19.5,51.2-28.6,75.5h46.5V20.2Z"/>
    <path class="st1" d="M11.2,19.9v91.5h42.9c-5.8-16.8-20.7-60.7-27-77.7-3.9-10.3-8.1-12.7-16-13.7Z"/>
    <path class="st0" d="M38.4,31.7c4,11.7,14.2,41.3,20.3,58,7.9-20.1,15.9-41.2,20.3-53.8,3.3-9.5-9.4-18.2-9.4-18.2h-22.9s-10.4,8.1-8.2,14Z"/>
  </g>
  <g>
    <path class="st1" d="M185.9,19.7c0-.2.2-.4.3-.6.1-.2.3-.3.6-.4.3,0,.7-.2,1.2-.3.5,0,1.2-.1,2-.1s.9,0,1.5,0c.6,0,1.3,0,2,0,.7,0,1.4,0,2.2-.1.7,0,1.4,0,2-.1,0,.5.1.9.1,1.2,0,.8-.2,1.2-.7,1.2-1.7.2-2.9.6-3.5,1-.6.4-.9.9-.9,1.6s0,.7.1,1.9.2,3.3.3,6.1c.1,2.9.3,6.7.5,11.4.2,4.7.5,10.6.8,17.7,0,.9.4,1.6.9,2,.6.4,1.7.8,3.5,1.1.2,0,.4.2.5.4.1.2.2.5.2.8s0,.7-.1,1.2c-1.7,0-3.2-.2-4.6-.3s-2.6-.1-3.8-.1-1.1,0-1.8,0c-.7,0-1.5,0-2.3,0-.8,0-1.6,0-2.3.1-.8,0-1.4,0-2,.1,0-.5-.1-.9-.1-1.2,0-.8.2-1.2.7-1.2,1.9-.4,3.2-.8,3.9-1.2.7-.4,1-1,1-1.9s0-1-.1-2.7c0-1.6-.2-3.6-.3-6-.1-2.3-.2-4.9-.4-7.6-.1-2.7-.2-5.3-.4-7.7-.1-2.4-.2-4.5-.3-6.3,0-1.7-.1-2.8-.1-3.2l-15.7,38c-.2.4-.4.8-.5,1-.2.2-.4.3-.7.3s-.6,0-.6,0l-17.6-40.4c0,.5-.1,1.6-.2,3.5,0,1.8-.2,4-.3,6.6-.1,2.5-.3,5.2-.4,8.1-.1,2.8-.3,5.4-.4,7.8-.1,2.4-.2,4.4-.3,6,0,1.6-.1,2.5-.1,2.6,0,1.5,1.6,2.5,4.9,3.1.5,0,.7.4.7,1.2s0,.7-.1,1.2c-1.3,0-2.6-.2-3.8-.3-1.2,0-2.3-.1-3.3-.1s-1.8,0-3.1.1c-1.3,0-2.5.2-3.7.3,0-.5-.1-.9-.1-1.2,0-.7.2-1.1.7-1.2,1.3-.2,2.3-.6,3.1-1,.8-.5,1.2-1.1,1.3-2,0-.4,0-1.6.1-3.6,0-2,.2-4.3.3-7.1.1-2.7.3-5.6.4-8.7.1-3.1.3-5.9.4-8.5.1-2.6.2-4.8.3-6.5,0-1.7.1-2.6.1-2.6,0-.8-.3-1.3-.9-1.7-.6-.4-1.7-.7-3.4-1-.5,0-.7-.5-.7-1.2s0-.7.1-1.2c.6,0,1.3,0,2.1.1.8,0,1.6,0,2.4.1.8,0,1.5,0,2.3,0,.7,0,1.3,0,1.7,0,.9,0,1.5,0,2,.1.5,0,.9.2,1.2.3.3,0,.5.2.6.4.1.2.2.4.3.6l15.4,35.9,14.6-35.9Z"/>
    <path class="st1" d="M233.9,48h-16l-4.6,11.6c-.2.6-.4,1.1-.4,1.4,0,1,1.5,1.7,4.4,2.2.3,0,.6.2.7.4.1.2.2.5.2.8s0,.7-.1,1.2c-1.3,0-2.7-.2-4.1-.3s-2.9-.1-4.2-.1-1.9,0-2.9,0c-1,0-2.1.1-3.2.3,0-.4-.1-.8-.1-1.2s0-.6.2-.9c.1-.2.4-.4.8-.4,1.5-.2,2.6-.5,3.3-.9.7-.4,1.3-.9,1.6-1.7l17.3-41.7c.3-.8.8-1.2,1.4-1.2s.5,0,.9.1l17.4,43c.3.7.9,1.2,1.9,1.6,1,.4,2,.6,2.9.8.3,0,.5.2.7.4.2.2.3.5.3.9s0,.7-.1,1.2c-1.5,0-3-.2-4.5-.3-1.5,0-2.9-.1-4.2-.1s-2.9,0-4.6.1-3.3.2-4.7.3c0-.5-.1-.9-.1-1.2,0-.4,0-.7.3-.9s.3-.3.5-.3c1.2-.2,2.3-.5,3-.8.8-.3,1.2-.8,1.2-1.4s0-.6-.3-1.1l-4.5-11.9ZM232.7,45.1l-6.7-17.6-7,17.6h13.7Z"/>
    <path class="st1" d="M292.9,53.7v-30.1c0-1.1-.4-1.8-1.2-2.2-.8-.4-2.1-.8-3.9-1-.5,0-.8-.5-.8-1.2s0-.7.1-1.2c1.2,0,2.4.2,3.7.3,1.2,0,2.4.1,3.5.1s2.2,0,3.3-.1,2.3-.2,3.4-.3c0,.5.1.9.1,1.2,0,.8-.2,1.2-.7,1.2-1.6.2-2.7.6-3.3,1-.6.4-.9,1.1-.9,2.1v42.3c0,0-.3,0-.5.1-.2,0-.4,0-.6,0-.3,0-.6,0-.9-.3-.3-.2-.6-.5-1-1l-29.2-38.5v33.9c0,1,.3,1.6,1,2,.7.4,2,.7,3.9,1.1.5,0,.7.5.7,1.2s0,.7-.1,1.2c-1.2,0-2.4-.2-3.6-.3-1.2,0-2.4-.1-3.4-.1s-2.1,0-3.4.1c-1.3,0-2.5.2-3.5.3,0-.5-.1-.9-.1-1.2,0-.7.3-1.1.8-1.2,1.7-.3,2.9-.7,3.5-1.1.6-.4.9-1.1.9-2V23.1c0-.8-.3-1.4-.8-1.8-.6-.4-1.7-.7-3.4-1-.5,0-.8-.5-.8-1.2s0-.5,0-.6c0-.1,0-.3,0-.5,1,0,1.9.2,2.7.2.8,0,1.6,0,2.4.1.9,0,1.6,0,2.3,0,1.4,0,2.3,0,2.8.1.5,0,.8.3,1.1.7l25.8,34.4Z"/>
    <path class="st1" d="M355.5,41.7c0,2.8-.5,5.6-1.5,8.4-1,2.8-2.5,5.3-4.5,7.5-2,2.2-4.5,4-7.5,5.4-3,1.4-6.6,2-10.7,2h-14.7c-1.2,0-2.7,0-4.2.1s-3.1.2-4.6.3c0-.5-.1-.9-.1-1.2,0-.7.3-1.1.8-1.2,1.8-.4,3-.8,3.8-1.2.8-.4,1.2-1,1.2-1.9V23.5c0-1-.4-1.6-1.1-2-.7-.4-2-.7-3.9-1.1-.3,0-.5-.2-.6-.4-.1-.2-.2-.5-.2-.8s0-.7.1-1.2c1,0,1.9.2,2.6.2.7,0,1.4,0,2.1.1.7,0,1.3,0,2,0h16.8c4,0,7.6.6,10.6,1.9,3,1.2,5.6,2.9,7.6,5,2,2.1,3.5,4.6,4.5,7.4,1,2.8,1.5,5.8,1.5,9.1ZM347.9,43.1c0-7.4-1.8-12.9-5.5-16.4-3.7-3.6-9-5.4-16.1-5.4h-6.3v38.3c0,.5.1.9.4,1.2.2.3.6.6,1.2.8.6.2,1.4.3,2.4.4,1,0,2.3.1,3.8.1,3.7,0,6.8-.4,9.3-1.3,2.5-.9,4.6-2.2,6.2-3.8,1.6-1.7,2.7-3.7,3.5-6,.7-2.3,1.1-5,1.1-7.9Z"/>
    <path class="st1" d="M374.6,21.3v18.4h11.2c1,0,1.6-.5,2-1.4.4-.9.7-2.1,1-3.4.1-.6.6-.9,1.3-.9s.3,0,.6,0c.2,0,.4,0,.6.1,0,1.1-.2,2.3-.3,3.6,0,1.3-.1,2.5-.1,3.5s0,1.8,0,3c0,1.2.1,2.5.3,4-.4,0-.7.1-1.1.1-.8,0-1.2-.3-1.4-.9-.2-1.3-.6-2.5-1-3.4-.4-.9-1.1-1.4-2-1.4h-11.2v17c0,1,.6,1.7,1.9,2,1.3.3,3.4.5,6.4.5h4c1.4,0,2.6-.2,3.6-.6,1-.4,1.9-1,2.7-1.7.8-.7,1.5-1.5,2.1-2.5.6-1,1.2-2,1.8-3.2.1-.3.5-.5,1.1-.5s.5,0,.8.2c.3.1.5.3.8.4-.4.9-.8,2-1.1,3.3-.3,1.3-.6,2.5-.9,3.6-.3,1.2-.6,2.1-.9,2.9-.3.8-.7,1.2-1.2,1.2s-.9,0-1.7,0c-.7,0-1.5,0-2.3-.1-.8,0-1.7,0-2.6-.1-.9,0-1.6,0-2.2,0h-15.7c-1.4,0-2.9,0-4.5.1-1.6,0-3.1.2-4.5.3,0-.5-.1-.9-.1-1.2,0-.7.2-1.1.7-1.2,1.8-.3,3.1-.7,3.9-1.1.8-.4,1.2-1.1,1.2-2V23.5c0-1-.3-1.6-1-2-.7-.4-2-.7-4.1-1.1-.5,0-.7-.5-.7-1.2s0-.4,0-.6c0-.2,0-.3.1-.5,2.1.1,3.8.2,5.2.3,1.4,0,2.6,0,3.7,0h14.2c2.2,0,4,0,5.6-.2,1.6-.1,2.6-.2,3.2-.2s1,.4,1.3,1.2c.2.8.4,1.7.5,2.8.1,1.1.3,2.3.5,3.5.2,1.2.6,2.3,1.1,3.2-.4.3-.8.4-1.3.4s-1-.2-1.2-.6c-.6-1.2-1.1-2.3-1.7-3.2-.5-.9-1.1-1.6-1.8-2.2-.7-.6-1.5-1-2.5-1.3-1-.3-2.2-.4-3.6-.4h-10.6Z"/>
    <path class="st1" d="M441,24.1c.2-.5.3-1,.3-1.4,0-.7-.3-1.2-1-1.5-.7-.3-1.8-.6-3.2-.8-.6,0-.9-.5-.9-1.2s0-.5,0-.6c0-.1,0-.3,0-.5,0,0,.4,0,.9,0,.5,0,1.2,0,1.9.1.7,0,1.5,0,2.4.1.9,0,1.7,0,2.4,0,1.6,0,3,0,4.4-.1,1.3,0,2.1-.2,2.3-.2,0,.1,0,.3,0,.5,0,.1,0,.3,0,.4,0,.1,0,.2,0,.3,0,.8-.3,1.2-.8,1.3-1.5,0-2.7.3-3.4.7-.7.4-1.3,1-1.7,1.9l-17.8,42.7c0,0-.2,0-.3,0-.1,0-.2,0-.3,0-.5,0-1-.4-1.3-1.2l-16.9-41.9c-.3-.7-.8-1.2-1.4-1.5-.7-.3-1.9-.6-3.6-.9-.5,0-.8-.5-.8-1.3s0-.8.1-1.2c1.4,0,3,.2,4.7.3,1.7,0,3.1.1,4.4.1s2.7,0,4.4-.1,3.3-.2,4.8-.3c0,.5.1.9.1,1.2,0,.7-.3,1.1-.9,1.2-2.8.3-4.2,1.1-4.2,2.3s0,.6.1.9l12.2,31.3,12.6-30.8Z"/>
    <path class="st1" d="M466.7,60.1c0,1,.3,1.6,1,2,.7.4,1.9.7,3.7,1.1.5,0,.7.5.7,1.2s0,.7-.1,1.2c-1.5,0-3-.2-4.5-.3-1.5,0-2.9-.1-4.2-.1s-2.7,0-4.3.1c-1.6,0-3,.2-4.4.3,0-.5-.1-.9-.1-1.2,0-.7.2-1.1.7-1.2,1.8-.3,3.1-.7,3.7-1.1.7-.4,1-1.1,1-2V23.5c0-1-.3-1.6-1-2-.7-.4-1.9-.8-3.7-1-.3,0-.5-.2-.6-.4,0-.2-.1-.5-.1-.8s0-.7.1-1.2c1.4,0,2.9.2,4.5.3,1.6,0,3,.1,4.2.1s2.6,0,4.1-.1,3.1-.2,4.6-.3c0,.5.1.9.1,1.2,0,.7-.2,1.1-.7,1.2-1.8.3-3.1.6-3.7,1-.7.4-1,1.1-1,2v36.6Z"/>
    <path class="st1" d="M491.4,59.9c0,.8.4,1.4,1.1,1.7.7.3,1.7.5,2.9.5h7.8c1.4,0,2.6-.2,3.6-.5,1-.4,1.9-.9,2.6-1.5.7-.7,1.4-1.5,1.9-2.5.6-1,1-2.1,1.5-3.3.1-.4.4-.6.9-.6s.5,0,.8.2c.3.1.5.3.8.4-.3,1.4-.7,3-1,4.6-.3,1.6-.6,3.4-.8,5.4,0,.5-.2.9-.4,1-.2.1-.5.2-.9.2-.8,0-1.8,0-3.1-.2-1.2-.1-2.3-.2-3.2-.2h-18c-1.1,0-2.5,0-4.2.1-1.7,0-3.3.2-4.8.3,0-.5-.1-.9-.1-1.2,0-.7.2-1.1.7-1.2,2-.3,3.3-.7,4-1.1.7-.4,1.1-1,1.1-1.9V23.5c0-1-.3-1.6-1-2-.7-.4-2-.8-3.9-1-.2,0-.4-.2-.5-.4-.1-.2-.2-.5-.2-.8s0-.7.1-1.2c1.6,0,3.2.2,4.8.3s2.9.1,4,.1c1.6,0,3.4,0,5.2-.1,1.8,0,3.5-.2,4.9-.3,0,.5.1.9.1,1.2,0,.8-.3,1.2-.8,1.3-2.1.2-3.6.6-4.6,1-1,.5-1.5,1.3-1.5,2.5v35.9Z"/>
    <path class="st1" d="M531.6,59.9c0,.8.4,1.4,1.1,1.7.7.3,1.7.5,2.9.5h7.8c1.4,0,2.6-.2,3.6-.5,1-.4,1.9-.9,2.6-1.5.7-.7,1.4-1.5,1.9-2.5.6-1,1-2.1,1.5-3.3.1-.4.4-.6.9-.6s.5,0,.8.2c.3.1.5.3.8.4-.3,1.4-.7,3-1,4.6-.3,1.6-.6,3.4-.8,5.4,0,.5-.2.9-.4,1-.2.1-.5.2-.9.2-.8,0-1.8,0-3.1-.2-1.2-.1-2.3-.2-3.2-.2h-18c-1.1,0-2.5,0-4.2.1-1.7,0-3.3.2-4.8.3,0-.5-.1-.9-.1-1.2,0-.7.2-1.1.7-1.2,2-.3,3.3-.7,4-1.1.7-.4,1.1-1,1.1-1.9V23.5c0-1-.3-1.6-1-2-.7-.4-2-.8-3.9-1-.2,0-.4-.2-.5-.4-.1-.2-.2-.5-.2-.8s0-.7.1-1.2c1.6,0,3.2.2,4.8.3s2.9.1,4,.1c1.6,0,3.4,0,5.2-.1,1.8,0,3.5-.2,4.9-.3,0,.5.1.9.1,1.2,0,.8-.3,1.2-.8,1.3-2.1.2-3.6.6-4.6,1-1,.5-1.5,1.3-1.5,2.5v35.9Z"/>
    <path class="st1" d="M571.7,21.3v18.4h11.2c1,0,1.6-.5,2-1.4.4-.9.7-2.1,1-3.4.1-.6.6-.9,1.3-.9s.3,0,.6,0c.2,0,.4,0,.6.1,0,1.1-.2,2.3-.3,3.6,0,1.3-.1,2.5-.1,3.5s0,1.8,0,3c0,1.2.1,2.5.3,4-.4,0-.7.1-1.1.1-.8,0-1.2-.3-1.4-.9-.2-1.3-.6-2.5-1-3.4-.4-.9-1.1-1.4-2-1.4h-11.2v17c0,1,.6,1.7,1.9,2,1.3.3,3.4.5,6.4.5h4c1.4,0,2.6-.2,3.6-.6,1-.4,1.9-1,2.7-1.7.8-.7,1.5-1.5,2.1-2.5.6-1,1.2-2,1.8-3.2.1-.3.5-.5,1.1-.5s.5,0,.8.2c.3.1.5.3.8.4-.4.9-.8,2-1.1,3.3-.3,1.3-.6,2.5-.9,3.6-.3,1.2-.6,2.1-.9,2.9-.3.8-.7,1.2-1.2,1.2s-.9,0-1.7,0c-.7,0-1.5,0-2.3-.1-.8,0-1.7,0-2.6-.1-.9,0-1.6,0-2.2,0h-15.7c-1.4,0-2.9,0-4.5.1-1.6,0-3.1.2-4.5.3,0-.5-.1-.9-.1-1.2,0-.7.2-1.1.7-1.2,1.8-.3,3.1-.7,3.9-1.1.8-.4,1.2-1.1,1.2-2V23.5c0-1-.3-1.6-1-2-.7-.4-2-.7-4.1-1.1-.5,0-.7-.5-.7-1.2s0-.4,0-.6c0-.2,0-.3.1-.5,2.1.1,3.8.2,5.2.3,1.4,0,2.6,0,3.7,0h14.2c2.2,0,4,0,5.6-.2,1.6-.1,2.6-.2,3.2-.2s1,.4,1.3,1.2c.2.8.4,1.7.5,2.8.1,1.1.3,2.3.5,3.5.2,1.2.6,2.3,1.1,3.2-.4.3-.8.4-1.3.4s-1-.2-1.2-.6c-.6-1.2-1.1-2.3-1.7-3.2-.5-.9-1.1-1.6-1.8-2.2-.7-.6-1.5-1-2.5-1.3-1-.3-2.2-.4-3.6-.4h-10.6Z"/>
    <path class="st0" d="M158.6,88.7c.1-.3.2-.5.2-.8,0-.3-.2-.6-.5-.8-.4-.2-.9-.3-1.7-.4-.3,0-.5-.2-.5-.6s0-.2,0-.3c0,0,0-.2,0-.3,0,0,.2,0,.5,0,.3,0,.6,0,1,0,.4,0,.8,0,1.3,0,.5,0,.9,0,1.3,0,.8,0,1.6,0,2.3,0,.7,0,1.1,0,1.2-.1,0,0,0,.2,0,.3,0,0,0,.1,0,.2,0,0,0,.1,0,.2,0,.4-.1.6-.4.7-.8,0-1.4.2-1.8.4s-.7.5-.9,1l-9.3,22.3c0,0-.1,0-.2,0,0,0-.1,0-.2,0-.3,0-.5-.2-.7-.6l-8.8-21.9c-.1-.3-.4-.6-.8-.8-.4-.2-1-.3-1.9-.5-.3,0-.4-.2-.4-.7s0-.4,0-.6c.8,0,1.6,0,2.4.1.9,0,1.6,0,2.3,0s1.4,0,2.3,0c.9,0,1.7,0,2.5-.1,0,.3,0,.5,0,.6,0,.4-.1.6-.5.6-1.5.2-2.2.6-2.2,1.2s0,.3,0,.5l6.4,16.3,6.6-16.1Z"/>
    <path class="st0" d="M188.7,87.3v9.6h5.9c.5,0,.9-.2,1.1-.7.2-.5.4-1.1.5-1.8,0-.3.3-.5.7-.5s.2,0,.3,0c.1,0,.2,0,.3,0,0,.6,0,1.2-.1,1.9,0,.7,0,1.3,0,1.8s0,.9,0,1.6c0,.6,0,1.3.1,2.1-.2,0-.4,0-.6,0-.4,0-.6-.2-.7-.5-.1-.7-.3-1.3-.5-1.8-.2-.5-.6-.7-1.1-.7h-5.9v8.9c0,.5.3.9,1,1,.7.2,1.8.3,3.3.3h2.1c.7,0,1.4-.1,1.9-.3.5-.2,1-.5,1.4-.9.4-.4.8-.8,1.1-1.3.3-.5.6-1.1.9-1.7,0-.2.3-.3.6-.3s.3,0,.4.1c.1,0,.3.2.4.2-.2.5-.4,1-.6,1.7-.2.7-.3,1.3-.5,1.9-.2.6-.3,1.1-.5,1.5-.2.4-.4.6-.6.6s-.5,0-.9,0c-.4,0-.8,0-1.2,0-.4,0-.9,0-1.3,0-.5,0-.8,0-1.2,0h-8.2c-.7,0-1.5,0-2.3,0-.8,0-1.6,0-2.4.1,0-.2,0-.5,0-.6,0-.3.1-.5.4-.6,1-.2,1.6-.4,2-.6s.6-.5.6-1.1v-19.1c0-.5-.2-.8-.5-1-.4-.2-1.1-.4-2.1-.6-.2,0-.4-.3-.4-.6s0-.2,0-.3c0,0,0-.2,0-.3,1.1,0,2,.1,2.7.2.7,0,1.4,0,2,0h7.4c1.1,0,2.1,0,2.9-.1.8,0,1.4-.1,1.7-.1s.5.2.7.6c.1.4.2.9.3,1.5,0,.6.2,1.2.3,1.8,0,.7.3,1.2.6,1.7-.2.2-.4.2-.7.2s-.5-.1-.6-.3c-.3-.6-.6-1.2-.9-1.7-.3-.5-.6-.8-1-1.1-.4-.3-.8-.5-1.3-.7-.5-.2-1.1-.2-1.9-.2h-5.6Z"/>
    <path class="st0" d="M240.7,104.2v-15.7c0-.5-.2-.9-.6-1.2-.4-.2-1.1-.4-2-.5-.3,0-.4-.2-.4-.6s0-.3,0-.6c.6,0,1.3,0,1.9.1.6,0,1.3,0,1.8,0s1.1,0,1.7,0c.6,0,1.2,0,1.8-.1,0,.3,0,.5,0,.6,0,.4-.1.6-.4.6-.9.1-1.4.3-1.7.5-.3.2-.5.6-.5,1.1v22.1c0,0-.1,0-.3,0-.1,0-.2,0-.3,0-.2,0-.3,0-.5-.1-.1,0-.3-.3-.5-.5l-15.2-20.1v17.7c0,.5.2.9.5,1.1s1,.4,2,.6c.2,0,.4.2.4.6s0,.4,0,.6c-.6,0-1.3,0-1.9-.1-.6,0-1.2,0-1.8,0s-1.1,0-1.8,0c-.7,0-1.3,0-1.8.1,0-.2,0-.5,0-.6,0-.3.1-.5.4-.6.9-.2,1.5-.4,1.8-.6.3-.2.5-.5.5-1.1v-19.3c0-.4-.1-.7-.4-.9-.3-.2-.9-.4-1.8-.5-.3,0-.4-.3-.4-.6s0-.2,0-.3c0,0,0-.2,0-.3.5,0,1,0,1.4.1.4,0,.8,0,1.3,0,.4,0,.8,0,1.2,0,.7,0,1.2,0,1.4,0,.2,0,.4.2.6.4l13.5,18Z"/>
    <path class="st0" d="M277.1,87.3v20c0,.6.2,1,.7,1.2.5.2,1.3.4,2.4.5.3,0,.4.2.4.6s0,.4,0,.6c-.8,0-1.6,0-2.5-.1-.9,0-1.8,0-2.7,0s-1.8,0-2.7,0c-.9,0-1.8,0-2.6.1,0-.2,0-.5,0-.6,0-.3.1-.5.4-.6,1.1-.1,1.9-.3,2.4-.6.5-.2.8-.6.8-1.2v-20h-3.9c-.8,0-1.4,0-1.9.2-.5.1-1,.4-1.3.7-.4.3-.7.7-1,1.2-.3.5-.6,1-.9,1.7,0,.1-.1.2-.2.3-.1,0-.2,0-.3,0-.3,0-.5,0-.7-.2.2-.9.4-1.7.6-2.4.1-.7.2-1.3.3-1.7,0-.5.2-.8.3-1.1s.3-.4.5-.4.4,0,.8,0c.3,0,.7,0,1,0,.4,0,.7,0,1.1,0,.4,0,.7,0,1.1,0h12.5c.3,0,.6,0,1,0,.4,0,.8,0,1.1,0,.4,0,.7,0,1,0,.3,0,.6,0,.8,0s.4.1.5.4c.1.3.2.6.3,1.1,0,.5.2,1.1.3,1.8.1.7.3,1.5.6,2.3-.1,0-.2.1-.4.2-.1,0-.2,0-.4,0s-.2,0-.3,0c-.1,0-.2-.1-.3-.3-.3-.6-.6-1.2-.8-1.7-.3-.5-.6-.9-1-1.2-.4-.3-.8-.5-1.3-.7-.5-.2-1.1-.2-1.9-.2h-3.9Z"/>
    <path class="st0" d="M328.3,101c0,1.4-.2,2.7-.5,3.9-.3,1.2-.9,2.2-1.6,3-.8.9-1.8,1.5-3,2-1.3.5-2.8.7-4.7.7s-3.9-.3-5.2-.8c-1.3-.5-2.3-1.2-3.1-2.1s-1.2-1.9-1.4-3c-.2-1.1-.4-2.3-.4-3.5v-12.8c0-.5-.2-.9-.5-1.1-.4-.2-1-.4-2-.5-.2,0-.4-.2-.4-.6s0-.3,0-.6c.8,0,1.5,0,2.3.1.8,0,1.5,0,2.3,0s1.4,0,2.3,0c.9,0,1.7,0,2.4-.1,0,.3,0,.5,0,.6,0,.4-.1.6-.4.6-1,.1-1.6.3-2,.5-.4.2-.6.6-.6,1.1v11.9c0,2.6.5,4.6,1.6,6s2.8,2.1,5.3,2.1,2.6-.2,3.6-.5c1-.3,1.8-.8,2.4-1.4s1.1-1.5,1.4-2.5c.3-1,.4-2.3.4-3.7v-11.8c0-.5-.2-.9-.6-1.1-.4-.2-1-.4-2-.5-.3,0-.4-.2-.4-.6s0-.3,0-.6c.7,0,1.4,0,2.1.1.7,0,1.3,0,1.8,0s1.2,0,1.8,0c.6,0,1.2,0,1.8-.1,0,.3,0,.5,0,.6s0,.3-.1.4c0,.1-.2.2-.3.2-.9.1-1.6.3-1.9.5-.4.2-.5.6-.5,1.1v12.6Z"/>
    <path class="st0" d="M360,99.2h-2.8v8.3c0,.6.3.9.8,1.1.5.2,1.3.4,2.3.5.3,0,.5.3.5.6s0,.4,0,.6c-.7,0-1.5,0-2.5-.1-1,0-1.9,0-2.8,0s-1.4,0-2.2,0c-.9,0-1.7,0-2.4.1,0-.2,0-.5,0-.6,0-.3.1-.5.4-.6,1-.2,1.6-.3,2-.5.4-.2.6-.6.6-1.1v-19.1c0-.5-.2-.8-.5-1.1-.4-.2-1.1-.4-2.1-.5-.2,0-.4-.2-.4-.6s0-.3,0-.6c.8,0,1.5,0,2.3.1.8,0,1.6,0,2.3,0h5.1c2.7,0,4.7.6,6.1,1.8,1.4,1.2,2.1,2.8,2.1,4.8s0,1.1-.3,1.7c-.2.6-.5,1.2-.9,1.8s-.9,1.1-1.5,1.6c-.6.5-1.3.9-2.2,1.2l6.3,8.7c.5.7,1,1.1,1.6,1.4s1.1.4,1.6.6c.2,0,.3.2.3.5s0,.4,0,.7c-.6,0-1.3,0-2.1-.1-.8,0-1.6,0-2.3,0s-1.1-.2-1.6-.7c-.5-.5-1-1-1.5-1.7l-6-8.7ZM359.2,97.6c1.8,0,3.1-.4,4.1-1.1,1-.7,1.4-2,1.4-3.9s-.1-1.5-.3-2.1-.5-1.2-1-1.7c-.4-.5-1-.8-1.7-1.1s-1.6-.4-2.6-.4h-1.9v10.4h2Z"/>
    <path class="st0" d="M398.1,87.3v9.6h5.9c.5,0,.9-.2,1.1-.7.2-.5.4-1.1.5-1.8,0-.3.3-.5.7-.5s.2,0,.3,0c.1,0,.2,0,.3,0,0,.6,0,1.2-.1,1.9,0,.7,0,1.3,0,1.8s0,.9,0,1.6c0,.6,0,1.3.1,2.1-.2,0-.4,0-.6,0-.4,0-.6-.2-.7-.5-.1-.7-.3-1.3-.5-1.8-.2-.5-.6-.7-1.1-.7h-5.9v8.9c0,.5.3.9,1,1,.7.2,1.8.3,3.3.3h2.1c.7,0,1.4-.1,1.9-.3.5-.2,1-.5,1.4-.9.4-.4.8-.8,1.1-1.3.3-.5.6-1.1.9-1.7,0-.2.3-.3.6-.3s.3,0,.4.1c.1,0,.3.2.4.2-.2.5-.4,1-.6,1.7-.2.7-.3,1.3-.5,1.9-.1.6-.3,1.1-.5,1.5-.2.4-.4.6-.6.6s-.5,0-.9,0c-.4,0-.8,0-1.2,0s-.9,0-1.3,0c-.5,0-.8,0-1.2,0h-8.2c-.7,0-1.5,0-2.3,0-.8,0-1.6,0-2.4.1,0-.2,0-.5,0-.6,0-.3.1-.5.4-.6,1-.2,1.6-.4,2-.6.4-.2.6-.5.6-1.1v-19.1c0-.5-.2-.8-.5-1s-1.1-.4-2.1-.6c-.2,0-.4-.3-.4-.6s0-.2,0-.3c0,0,0-.2,0-.3,1.1,0,2,.1,2.7.2.7,0,1.4,0,2,0h7.4c1.1,0,2.1,0,2.9-.1s1.4-.1,1.7-.1.5.2.7.6c.1.4.2.9.3,1.5s.2,1.2.3,1.8c0,.7.3,1.2.6,1.7-.2.2-.4.2-.7.2s-.5-.1-.6-.3c-.3-.6-.6-1.2-.9-1.7s-.6-.8-1-1.1c-.4-.3-.8-.5-1.3-.7-.5-.2-1.1-.2-1.9-.2h-5.6Z"/>
    <path class="st0" d="M446.8,91.6c-.2,0-.4,0-.6,0-.3,0-.6,0-.7-.2-.1-.1-.3-.3-.3-.4-.7-1.4-1.4-2.5-2.3-3.1-.9-.6-2.1-1-3.7-1s-1.2,0-1.7.2c-.5.2-1,.4-1.4.7s-.7.7-1,1.1c-.2.5-.4,1-.4,1.5,0,1.2.5,2.1,1.5,2.9,1,.8,2.4,1.5,4.4,2.3,2.4,1,4.2,2,5.3,3.2,1.1,1.2,1.7,2.6,1.7,4.3s-.2,2-.5,2.9-.8,1.7-1.5,2.3c-.7.7-1.5,1.2-2.6,1.6s-2.3.6-3.8.6-3-.2-4.2-.5c-1.3-.3-2.3-.8-3.2-1.3,0-1.1-.2-2.1-.3-3-.2-1-.3-2-.5-2.9.2,0,.4-.1.6-.1s.5,0,.7.2c.2.1.3.4.4.7.6,1.8,1.4,3.1,2.4,4,1,.9,2.4,1.3,4.1,1.3s1.5-.1,2.1-.3c.6-.2,1.1-.5,1.5-.9.4-.4.7-.8.9-1.4.2-.5.3-1,.3-1.6,0-1.3-.4-2.3-1.3-3.1-.9-.8-2.2-1.4-3.8-2-1.1-.4-2.1-.8-2.9-1.3-.9-.4-1.6-.9-2.3-1.5-.6-.6-1.1-1.2-1.4-2-.3-.8-.5-1.7-.5-2.7s.2-1.8.5-2.6.8-1.5,1.5-2.1c.6-.6,1.4-1.1,2.3-1.4.9-.4,1.9-.5,3-.5s2.3.1,3.4.3c1.1.2,2.3.6,3.6,1.1,0,.8.1,1.6.2,2.4,0,.9.2,1.7.4,2.4Z"/>
    <path class="st0" d="M501,107.5c0,.5.2.8.5,1,.3.2,1,.4,2,.6.2,0,.4.2.4.6s0,.4,0,.6c-.8,0-1.6,0-2.3-.1-.8,0-1.5,0-2.2,0s-1.4,0-2.2,0c-.8,0-1.6,0-2.3.1,0-.2,0-.5,0-.6,0-.3.1-.5.4-.6,1-.2,1.6-.4,2-.6.3-.2.5-.5.5-1.1v-19.1c0-.5-.2-.9-.5-1.1-.4-.2-1-.4-2-.5-.2,0-.2,0-.3-.2,0-.1,0-.3,0-.4s0-.3,0-.6c.8,0,1.5,0,2.3.1.8,0,1.5,0,2.2,0s1.3,0,2.2,0c.8,0,1.6,0,2.4-.1,0,.3,0,.5,0,.6,0,.4-.1.6-.4.6-1,.2-1.6.3-2,.5-.4.2-.5.6-.5,1.1v19.1Z"/>
    <path class="st0" d="M543.2,104.2v-15.7c0-.5-.2-.9-.6-1.2-.4-.2-1.1-.4-2-.5-.3,0-.4-.2-.4-.6s0-.3,0-.6c.6,0,1.3,0,1.9.1.7,0,1.3,0,1.8,0s1.1,0,1.7,0c.6,0,1.2,0,1.8-.1,0,.3,0,.5,0,.6,0,.4-.1.6-.4.6-.8.1-1.4.3-1.7.5-.3.2-.5.6-.5,1.1v22.1c0,0-.1,0-.3,0-.1,0-.2,0-.3,0-.2,0-.3,0-.5-.1-.2,0-.3-.3-.5-.5l-15.2-20.1v17.7c0,.5.2.9.5,1.1.3.2,1,.4,2,.6.2,0,.4.2.4.6s0,.4,0,.6c-.6,0-1.3,0-1.9-.1-.6,0-1.2,0-1.8,0s-1.1,0-1.8,0c-.7,0-1.3,0-1.8.1,0-.2,0-.5,0-.6,0-.3.1-.5.4-.6.9-.2,1.5-.4,1.8-.6.3-.2.5-.5.5-1.1v-19.3c0-.4-.1-.7-.4-.9-.3-.2-.9-.4-1.8-.5-.3,0-.4-.3-.4-.6s0-.2,0-.3c0,0,0-.2,0-.3.5,0,1,0,1.4.1.4,0,.8,0,1.3,0,.5,0,.8,0,1.2,0,.7,0,1.2,0,1.4,0,.2,0,.4.2.6.4l13.5,18Z"/>
    <path class="st0" d="M579.5,110.6c-2.1,0-3.9-.3-5.5-1-1.6-.6-2.9-1.5-3.9-2.7-1-1.1-1.8-2.5-2.3-4-.5-1.5-.8-3.2-.8-5s.3-3,.8-4.5c.5-1.5,1.3-2.9,2.3-4.1,1-1.2,2.3-2.2,3.9-3,1.6-.8,3.4-1.1,5.5-1.1s1.6,0,2.3,0c.7,0,1.3.1,2,.2.6,0,1.2.2,1.8.3.6.1,1.2.3,1.9.5,0,.7.1,1.5.3,2.5.2,1,.3,2,.6,3-.2.1-.4.2-.6.2s-.4,0-.5,0c-.2,0-.3-.2-.3-.4-.5-1.7-1.2-2.8-2.1-3.5-1-.7-2.4-1-4.2-1s-2.9.2-4.1.8c-1.2.5-2.2,1.2-3,2.1s-1.4,2-1.8,3.2c-.4,1.3-.6,2.7-.6,4.2s.3,3.3.8,4.8c.5,1.5,1.2,2.7,2.1,3.8.9,1.1,1.9,1.9,3.1,2.4,1.2.6,2.5.9,3.8.9s2-.1,2.7-.3c.7-.2,1.4-.5,1.8-.9.5-.4.9-.9,1.2-1.5s.7-1.3,1-2c.2-.4.5-.6.9-.6s.3,0,.4,0c.1,0,.2,0,.3.1-.3.9-.6,1.8-.9,2.9-.3,1.1-.5,2.1-.8,3.2-1.2.2-2.5.4-3.8.5s-2.7.2-4.2.2Z"/>
    <path class="st0" d="M593.5,108.1c0-.7.2-1.2.7-1.7.5-.5,1-.7,1.7-.7s1.2.2,1.7.7c.5.5.7,1.1.7,1.7s-.2,1.3-.7,1.8c-.5.5-1,.7-1.7.7s-1.3-.2-1.7-.7-.7-1.1-.7-1.8Z"/>
  </g>
</svg>
